<svg xmlns="http://www.w3.org/2000/svg" fill="none" viewBox="0 0 28 28" id="Horizontal-Menu-Circle--Streamline-Plump.svg" height="16" width="16"><desc>Horizontal Menu Circle Streamline Icon: https://streamlinehq.com</desc><g id="horizontal-menu-circle--navigation-dots-three-circle-button-horizontal-menu"><path id="Ellipse 544" stroke="#000000" stroke-linejoin="round" d="M25.875 13.5c0 6.83454375 -5.54045625 12.375 -12.375 12.375S1.125 20.33454375 1.125 13.5 6.66545625 1.125 13.5 1.125s12.375 5.54045625 12.375 12.375Z" stroke-width="2"></path><path id="Ellipse 545" stroke="#000000" stroke-linecap="round" stroke-linejoin="round" d="M11.53125 13.5a1.96875 1.96875 0 1 0 3.9375 0 1.96875 1.96875 0 1 0 -3.9375 0" stroke-width="2"></path><path id="Ellipse 546" stroke="#000000" stroke-linecap="round" stroke-linejoin="round" d="M5.0625 13.5a1.96875 1.96875 0 1 0 3.9375 0 1.96875 1.96875 0 1 0 -3.9375 0" stroke-width="2"></path><path id="Ellipse 547" stroke="#000000" stroke-linecap="round" stroke-linejoin="round" d="M18 13.5a1.96875 1.96875 0 1 0 3.9375 0 1.96875 1.96875 0 1 0 -3.9375 0" stroke-width="2"></path></g></svg>