<svg xmlns="http://www.w3.org/2000/svg" fill="none" viewBox="0 0 48 48" id="Check-Double-Thick--Streamline-Plump-Gradient.svg" height="30" width="30" stroke-width="1"><desc>Check Double Thick Streamline Icon: https://streamlinehq.com</desc><g id="check-double-thick--check-double-thick-form-validation-checkmark-success-tick"><path id="Union" fill="url(#paint0_linear_6678_876)" fill-rule="evenodd" d="M25.8673 10.3271c1.3814-1.96885 4.0241-3.12074 6.354-1.70316 1.1025.67077 2.3279 1.61896 3.3635 2.92446 1.4162 1.7852 1.0232 4.172-.0484 5.8179-6.8039 10.4506-11.8041 17.0185-14.7457 20.6321-2.0277 2.4908-5.5645 2.6756-7.8525.4481-2.7506-2.6781-6.8614-6.9223-11.15641-12.225-1.45481-1.7961-1.8551882-4.5186-.23479-6.4888.69396-.8438 1.43749-1.5885 2.1388-2.2184 2.17352-1.9523 5.26993-1.4328 7.115.5649 1.9654 2.1281 3.5375 3.9274 4.6193 5.196.3164.3709.5908.6965.821.9718.4724-.6955 1.1596-1.7042 2.0389-2.9866 1.794-2.6166 4.3877-6.3729 7.5873-10.9333Zm5.9234 27.6713c-1.9707 2.4207-5.3669 2.6634-7.6566.6302 3.0801-3.8777 7.7799-10.1983 13.9174-19.6254 1.4867-2.2836 2.3882-6.1632-.1154-9.3192-.0805-.10147-.1618-.20112-.2438-.29897 1.4643-1.3492 3.6034-1.93265 5.529-.76109 1.1025.67077 2.3279 1.61896 3.3635 2.92446 1.4162 1.7852 1.0232 4.172-.0484 5.8179-6.8039 10.4506-11.8041 17.0185-14.7457 20.6321Z" clip-rule="evenodd"></path></g><defs><linearGradient id="paint0_linear_6678_876" x1="8.182" x2="38.034" y1="14.149" y2="38.439" gradientUnits="userSpaceOnUse"><stop stop-color="#ffd600"></stop><stop offset="1" stop-color="#00d078"></stop></linearGradient></defs></svg>