<svg xmlns="http://www.w3.org/2000/svg" width="32" height="32" viewBox="0 0 16 16">
  <g transform="scale(0.03125)">
    <rect width="512" height="512" rx="112" ry="112" fill="#fff"/>
    <g transform="translate(0,512) scale(0.1,-0.1)" fill="#4D6BFE">
      <path d="M4408 1391c-40-20-57 17-81 37-8 6-15 14-22 21-58 62-127 103-216 99-130-7-242 34-340 133-21-123-90-197-196-244-55-25-111-49-150-103-27-38-34-80-48-121-9-25-17-51-46-55-31-5-44 21-56 43-49 90-68 189-66 290 4 226 100 406 289 534 22 15 27 30 20 51-13 44-28 87-42 131-9 28-22 34-52 22-104-43-194-108-273-185-135-131-257-274-409-387-15-11-25-17-109-74-155-150 20-274 60-289 42-15 15-68-122-67-137 1-263 47-423 107-23 9-48 16-73 21-145-28-296-34-453-16-297 33-534 173-708 413-209 287-258 615-198 956 63 359 247 657 528 889 292 241 629 359 1013 337 233-13 493-45 786-296 74 37 151 52 280 62 99 9 195-5 268-20 116-24 107-132 66-151-339-158-264-94-332-146 172-204 432-416 534-1102 8-54 1-88 0-133-1-27 6-37 36-40 85-10 167-33 243-75 220-120 308-317 329-553 3-36-1-73-39-93zm-1915 2127c-329-258-488-343-554-337-61 5-50 74-37 120 14 45 33 77 58 117 18 27 30 66-18 95-106 66-290-22-298-26-214-126-393-293-520-520-121-219-192-453-204-705-3-61 15-83 75-94 79-15 161-18 240-6 335 49 621 199 861 437 137 136 240 299 347 455 113 167 235 327 390 459 55 46 99 80 141 105-126 14-337 17-482-96zm159-1025c5-21 24-37 47-37a47 47 0 0 1 17 3c7 2 13 6 18 12 9 9 14 21 14 34 0 27-22 48-49 48a47 47 0 0 1 -47-40 50 50 0 0 1 1-20zm472 269c-26 10-52 17-77 19-47 2-98-16-126-39-43-36-74-56-87-119-6-27-3-69 2-93 11-51-1-85-38-115-30-25-67-32-108-32-15 0-29-6-40-12-17-9-31-30-18-57 4-9 25-29 30-33 56-32 121-21 180 2 55 23 97 65 158 123 62 72 73 91 108 144 28 42 53 85 70 134 8 26 1 48-23 63-10 6-22 11-34 16z"/>
    </g>
  </g>
</svg>
