<svg xmlns="http://www.w3.org/2000/svg" width="32" height="32" viewBox="0 0 16 16">
  <g transform="scale(0.03125)">
    <g transform="translate(0,512) scale(0.100000,-0.100000)" fill="#000000" stroke="none">
      <path d="M1026 5100 c-517 -62 -934 -464 -1011 -977 -22 -146 -22 -2980 0
      -3126 63 -421 365 -783 765 -920 193 -66 86 -62 1780 -62 1694 0 1587 -4 1780
      62 400 137 702 499 765 920 22 146 22 2980 0 3126 -63 421 -365 784 -765 920
      -192 65 -71 61 -1735 63 -830 1 -1541 -2 -1579 -6z m986 -1332 c252 -224 460
      -408 463 -408 3 0 5 185 5 410 l0 410 85 0 85 0 0 -415 c0 -228 2 -415 5 -415
      2 0 229 189 502 421 l498 420 3 -470 2 -471 160 0 160 0 0 -720 0 -720 -195 0
      -195 0 -2 -446 -3 -446 -465 426 -465 427 -3 -416 -2 -415 -85 0 -85 0 -2 416
      -3 416 -477 -426 c-262 -234 -480 -426 -483 -426 -3 0 -5 200 -5 445 l0 445
      -185 0 -185 0 0 720 0 720 195 0 195 0 0 471 c0 373 3 469 13 463 6 -5 218
      -192 469 -416z"/>
      <path d="M3170 3558 c-168 -143 -318 -271 -335 -284 l-30 -24 343 0 342 0 0
      285 c0 157 -3 285 -7 284 -5 0 -145 -118 -313 -261z"/>
      <path d="M1700 3531 l0 -281 317 0 318 0 -25 23 c-36 34 -572 509 -592 526
      -17 13 -18 -1 -18 -268z"/>
      <path d="M1310 2525 l0 -545 100 0 100 0 0 134 0 134 398 387 c218 214 408
      399 422 412 l25 23 -523 0 -522 0 0 -545z"/>
      <path d="M3182 2663 l408 -408 2 -135 3 -135 108 -3 107 -3 0 546 0 545 -517
      0 -518 0 407 -407z"/>
      <path d="M2078 2564 l-398 -387 0 -439 c0 -242 4 -438 8 -436 5 2 185 161 400
      353 l392 350 0 473 c0 259 -1 472 -2 472 -2 0 -182 -174 -400 -386z"/>
      <path d="M2650 2480 l1 -475 376 -345 c208 -190 381 -346 385 -348 4 -2 8 194
      8 435 l0 438 -385 385 -385 385 0 -475z"/>
    </g>
  </g>
</svg>