
<svg
  version="1.0"
  xmlns="http://www.w3.org/2000/svg"
  xmlns:xlink="http://www.w3.org/1999/xlink"
  width="800"
  height="600"
>
  
  <rect
    x="0"
    y="0"
    width="100%"
    height="100%"
    fill="#ffffff"
    fill-opacity="1"
  ></rect>
  <svg
    version="1.0"
    xmlns="http://www.w3.org/2000/svg"
    xmlns:xlink="http://www.w3.org/1999/xlink"
    x="0"
    y="0"
    width="800"
    height="600"
    viewBox="0 0 340.000000 250.000000"
    preserveAspectRatio="xMidYMid meet"
    color-interpolation-filters="sRGB"
  >
    <defs><linearGradient id="92" x1="0%" y1="0%" x2="100%" y2="0%"><stop offset="0%" stop-color="#fa71cd"/> <stop offset="100%" stop-color="#9b59b6"/></linearGradient><linearGradient id="93" x1="0%" y1="0%" x2="100%" y2="0%"><stop offset="0%" stop-color="#f9d423"/> <stop offset="100%" stop-color="#f83600"/></linearGradient><linearGradient id="94" x1="0%" y1="0%" x2="100%" y2="0%"><stop offset="0%" stop-color="#0064d2"/> <stop offset="100%" stop-color="#1cb0f6"/></linearGradient><linearGradient id="95" x1="0%" y1="0%" x2="100%" y2="0%"><stop offset="0%" stop-color="#f00978"/> <stop offset="100%" stop-color="#3f51b1"/></linearGradient><linearGradient id="96" x1="0%" y1="0%" x2="100%" y2="0%"><stop offset="0%" stop-color="#7873f5"/> <stop offset="100%" stop-color="#ec77ab"/></linearGradient><linearGradient id="97" x1="0%" y1="0%" x2="100%" y2="0%"><stop offset="0%" stop-color="#f9d423"/> <stop offset="100%" stop-color="#e14fad"/></linearGradient><linearGradient id="98" x1="0%" y1="0%" x2="100%" y2="0%"><stop offset="0%" stop-color="#009efd"/> <stop offset="100%" stop-color="#2af598"/></linearGradient><linearGradient id="99" x1="0%" y1="0%" x2="100%" y2="0%"><stop offset="0%" stop-color="#ffcc00"/> <stop offset="100%" stop-color="#00b140"/></linearGradient><linearGradient id="100" x1="0%" y1="0%" x2="100%" y2="0%"><stop offset="0%" stop-color="#d51007"/> <stop offset="100%" stop-color="#ff8177"/></linearGradient><linearGradient id="102" x1="0%" y1="0%" x2="100%" y2="0%"><stop offset="0%" stop-color="#a2b6df"/> <stop offset="100%" stop-color="#0c3483"/></linearGradient><linearGradient id="103" x1="0%" y1="0%" x2="100%" y2="0%"><stop offset="0%" stop-color="#7ac5d8"/> <stop offset="100%" stop-color="#eea2a2"/></linearGradient><linearGradient id="104" x1="0%" y1="0%" x2="100%" y2="0%"><stop offset="0%" stop-color="#00ecbc"/> <stop offset="100%" stop-color="#007adf"/></linearGradient><linearGradient id="105" x1="0%" y1="0%" x2="100%" y2="0%"><stop offset="0%" stop-color="#b88746"/> <stop offset="100%" stop-color="#fdf5a6"/></linearGradient></defs> <g fill="#0a0619" class="icon-text-wrapper icon-svg-group iconsvg" transform="translate(55.05000305175781,88.55596542358398)"><g class="iconsvg-imagesvg" transform="translate(0,0)" mask="url(#5fe84f56-8504-4aac-88e5-3a7e08b7d2df)"><g><rect fill="#0a0619" fill-opacity="0" stroke-width="2" x="0" y="0" width="60" height="72.88806822323185" class="image-rect"/> <svg filter="url(#colors6736405536)" x="0" y="0" width="60" height="72.88806822323185" filtersec="colorsf6708170252" class="image-svg-svg primary" style="overflow: visible;"><svg xmlns="http://www.w3.org/2000/svg" xmlns:xlink="http://www.w3.org/1999/xlink" version="1.1" x="0px" y="0px" viewBox="12.955998420715332 5 74.08700561523438 90.0009994506836" enable-background="new 0 0 100 100" xml:space="preserve"><g display="none"><rect x="-267.879" y="-165.155" display="inline" width="1286.936" height="912.422"/></g><g><path d="M80.631,37.719c0-3.499-2.847-6.346-6.346-6.346H55.172c-0.913-0.834-2.026-1.449-3.26-1.767h0.043v-3.292   c2.922-0.849,5.066-3.546,5.066-6.738c0-3.871-3.15-7.021-7.021-7.021c-3.871,0-7.021,3.15-7.021,7.021   c0,3.192,2.144,5.889,5.066,6.738v3.292h0.043c-1.234,0.318-2.347,0.932-3.26,1.767H25.796c-3.499,0-6.346,2.847-6.346,6.346v3.64   l-3.937,1.451l-2.557,0.943v2.725v9.666v2.726l2.557,0.943l3.937,1.451v3.64c0,3.499,2.847,6.346,6.346,6.346h5.955v1.422v1.909   c-5.652,2.117-10.043,6.988-11.366,13.123c-3.068,0.875-5.333,3.81-5.333,7.297h4.946c0-1.446,1.023-2.623,2.279-2.623   c1.257,0,2.28,1.177,2.28,2.623h4.946c0-3.403-2.156-6.288-5.112-7.237c1.085-3.951,3.82-7.152,7.359-8.92v10.735v3.909h3.909   h28.68h3.909v-3.909V78.846c3.537,1.768,6.271,4.968,7.357,8.918c-2.955,0.95-5.11,3.834-5.11,7.237h4.946   c0-1.446,1.023-2.623,2.28-2.623c1.257,0,2.279,1.177,2.279,2.623h4.946c0-3.487-2.266-6.423-5.334-7.297   c-1.325-6.133-5.715-11.002-11.364-13.12v-1.911V71.25h6.036c3.499,0,6.346-2.847,6.346-6.346v-3.67l3.856-1.421l2.557-0.943   v-2.726v-9.666v-2.725l-2.557-0.943l-3.856-1.421V37.719z M19.45,57.097l-2.585-0.953v-9.666l2.585-0.953V57.097z M46.889,19.576   c0-1.718,1.393-3.111,3.111-3.111s3.111,1.393,3.111,3.111S51.718,22.688,50,22.688S46.889,21.295,46.889,19.576z M64.34,89.578   H35.66V72.672h28.68V89.578z M76.722,64.904c0,1.346-1.091,2.436-2.436,2.436h-48.49c-1.346,0-2.436-1.091-2.436-2.436V37.719   c0-1.346,1.091-2.436,2.436-2.436h48.49c1.346,0,2.436,1.091,2.436,2.436V64.904z M83.135,46.478v9.666l-2.504,0.923V45.555   L83.135,46.478z"/><path d="M29.026,54.501c0,3.916,3.186,7.101,7.102,7.101h27.745c3.916,0,7.101-3.186,7.101-7.101V41.02H29.026V54.501z    M31.409,43.403H68.59v11.098c0,2.601-2.116,4.718-4.718,4.718H36.128c-2.601,0-4.718-2.116-4.718-4.718V43.403z"/><path d="M37.588,55.5h1.075c1.428,0,2.591-1.162,2.591-2.591v-3.33h-1.472h-1.556v-2.033v-1.472h-0.639   c-1.428,0-2.591,1.162-2.591,2.591v4.244C34.997,54.337,36.159,55.5,37.588,55.5z"/><path d="M61.485,55.825h0.927c1.428,0,2.59-1.162,2.59-2.591v-3.656h-1.472H62.7v-1.975v-1.501   c-0.096-0.011-0.189-0.029-0.287-0.029h-0.927c-1.428,0-2.591,1.162-2.591,2.591v4.57C58.894,54.663,60.056,55.825,61.485,55.825z"/><path d="M61.646,7.841l-2.68,4.642c0.775,0.386,1.523,0.817,2.238,1.293l2.68-4.642L61.646,7.841z"/><path d="M51.043,5h-2.585v5.363c0.428-0.026,0.858-0.044,1.292-0.044c0.435,0,0.865,0.018,1.292,0.044V5z"/><path d="M37.855,7.841l-2.239,1.293l2.68,4.642c0.716-0.476,1.464-0.907,2.238-1.293L37.855,7.841z"/><path d="M54.442,76.757H37.553v8.735h16.889V76.757z M52.059,83.109H39.937v-3.968h12.122V83.109z"/><path d="M59.74,84.774c2.012,0,3.648-1.637,3.648-3.649c0-2.012-1.637-3.649-3.648-3.649c-2.012,0-3.649,1.637-3.649,3.649   C56.091,83.137,57.728,84.774,59.74,84.774z M59.74,79.86c0.697,0,1.265,0.568,1.265,1.265c0,0.698-0.568,1.265-1.265,1.265   c-0.698,0-1.265-0.568-1.265-1.265C58.475,80.427,59.042,79.86,59.74,79.86z"/></g></svg></svg> <defs><filter id="colors6736405536"><feColorMatrix type="matrix" values="0 0 0 0 0.953125  0 0 0 0 0.25  0 0 0 0 0.05078125  0 0 0 1 0" class="icon-feColorMatrix "/></filter> <filter id="colorsf6708170252"><feColorMatrix type="matrix" values="0 0 0 0 0.99609375  0 0 0 0 0.99609375  0 0 0 0 0.99609375  0 0 0 1 0" class="icon-fecolormatrix"/></filter> <filter id="colorsb7088409302"><feColorMatrix type="matrix" values="0 0 0 0 0  0 0 0 0 0  0 0 0 0 0  0 0 0 1 0" class="icon-fecolormatrix"/></filter></defs></g><rect v-gra="id" width="72" height="84.88806915283203" transform="translate(-6, -6)" style="pointer-events:none;" fill="url(#Ds9qJmPAyav8oxDOLCu-Q)"/></g> <g transform="translate(67,14.109033584594727)"><g fill-rule="" class="tp-name iconsvg-namesvg"><g transform="scale(1)"><g><path d="M24.18-7.32L24.18-7.32Q26.28-7.32 27.9-7.68 29.52-8.04 30.96-8.64L30.96-8.64 30.96-15.27 26.64-15.27Q25.68-15.27 25.14-15.78 24.6-16.29 24.6-17.07L24.6-17.07 24.6-22.65 40.14-22.65 40.14-4.2Q38.46-2.97 36.64-2.08 34.83-1.2 32.77-0.63 30.72-0.06 28.39 0.21 26.07 0.48 23.4 0.48L23.4 0.48Q18.6 0.48 14.52-1.21 10.44-2.91 7.46-5.89 4.47-8.88 2.77-12.97 1.08-17.07 1.08-21.87L1.08-21.87Q1.08-26.76 2.7-30.86 4.32-34.95 7.33-37.92 10.35-40.89 14.63-42.54 18.9-44.19 24.18-44.19L24.18-44.19Q26.91-44.19 29.31-43.74 31.71-43.29 33.73-42.51 35.76-41.73 37.44-40.65 39.12-39.57 40.44-38.31L40.44-38.31 37.5-33.84Q37.08-33.21 36.49-32.85 35.91-32.49 35.22-32.49L35.22-32.49Q34.32-32.49 33.36-33.09L33.36-33.09Q32.16-33.81 31.09-34.34 30.03-34.86 28.92-35.19 27.81-35.52 26.58-35.67 25.35-35.82 23.82-35.82L23.82-35.82Q20.97-35.82 18.69-34.81 16.41-33.81 14.8-31.98 13.2-30.15 12.33-27.58 11.46-25.02 11.46-21.87L11.46-21.87Q11.46-18.39 12.42-15.69 13.38-12.99 15.07-11.13 16.77-9.27 19.09-8.29 21.42-7.32 24.18-7.32ZM55.62 0L46.32 0 46.32-31.11 51.84-31.11Q52.53-31.11 52.99-30.99 53.46-30.87 53.77-30.61 54.09-30.36 54.25-29.94 54.42-29.52 54.54-28.92L54.54-28.92 55.05-26.01Q56.76-28.65 58.89-30.18 61.02-31.71 63.54-31.71L63.54-31.71Q65.67-31.71 66.96-30.69L66.96-30.69 65.76-23.85Q65.64-23.22 65.28-22.96 64.92-22.71 64.32-22.71L64.32-22.71Q63.81-22.71 63.12-22.84 62.43-22.98 61.38-22.98L61.38-22.98Q57.72-22.98 55.62-19.08L55.62-19.08 55.62 0ZM84.96-31.59L84.96-31.59Q88.5-31.59 91.41-30.48 94.32-29.37 96.41-27.3 98.49-25.23 99.64-22.27 100.8-19.32 100.8-15.63L100.8-15.63Q100.8-11.91 99.64-8.92 98.49-5.94 96.41-3.85 94.32-1.77 91.41-0.65 88.5 0.48 84.96 0.48L84.96 0.48Q81.39 0.48 78.47-0.65 75.54-1.77 73.42-3.85 71.31-5.94 70.16-8.92 69-11.91 69-15.63L69-15.63Q69-19.32 70.16-22.27 71.31-25.23 73.42-27.3 75.54-29.37 78.47-30.48 81.39-31.59 84.96-31.59ZM84.96-6.42L84.96-6.42Q88.17-6.42 89.69-8.69 91.2-10.95 91.2-15.57L91.2-15.57Q91.2-20.19 89.69-22.44 88.17-24.69 84.96-24.69L84.96-24.69Q81.66-24.69 80.13-22.44 78.6-20.19 78.6-15.57L78.6-15.57Q78.6-10.95 80.13-8.69 81.66-6.42 84.96-6.42ZM133.98-31.11L121.92 0 113.46 0 101.4-31.11 109.14-31.11Q110.13-31.11 110.8-30.64 111.48-30.18 111.72-29.49L111.72-29.49 116.04-15.54Q116.55-13.83 117.01-12.21 117.48-10.59 117.81-8.97L117.81-8.97Q118.14-10.59 118.62-12.21 119.1-13.83 119.64-15.54L119.64-15.54 124.14-29.49Q124.38-30.18 125.04-30.64 125.7-31.11 126.6-31.11L126.6-31.11 133.98-31.11ZM150-31.59L150-31.59Q153.09-31.59 155.66-30.63 158.22-29.67 160.06-27.84 161.91-26.01 162.95-23.36 163.98-20.7 163.98-17.34L163.98-17.34Q163.98-16.29 163.89-15.63 163.8-14.97 163.56-14.58 163.32-14.19 162.92-14.04 162.51-13.89 161.88-13.89L161.88-13.89 143.94-13.89Q144.39-9.99 146.31-8.23 148.23-6.48 151.26-6.48L151.26-6.48Q152.88-6.48 154.05-6.87 155.22-7.26 156.14-7.74 157.05-8.22 157.81-8.61 158.58-9 159.42-9L159.42-9Q160.53-9 161.1-8.19L161.1-8.19 163.8-4.86Q162.36-3.21 160.7-2.17 159.03-1.14 157.28-0.55 155.52 0.03 153.77 0.26 152.01 0.48 150.42 0.48L150.42 0.48Q147.15 0.48 144.29-0.58 141.42-1.65 139.28-3.75 137.13-5.85 135.89-8.97 134.64-12.09 134.64-16.23L134.64-16.23Q134.64-19.35 135.71-22.14 136.77-24.93 138.77-27.03 140.76-29.13 143.59-30.36 146.43-31.59 150-31.59ZM150.18-25.17L150.18-25.17Q147.51-25.17 146.01-23.65 144.51-22.14 144.03-19.29L144.03-19.29 155.64-19.29Q155.64-20.4 155.36-21.45 155.07-22.5 154.43-23.32 153.78-24.15 152.73-24.66 151.68-25.17 150.18-25.17Z" transform="translate(-1.0800000429153442, 44.189998626708984)"/></g> </g></g> </g></g><defs v-gra="od"/><defs v-gra="id"><filter id="6bdbadd2-a8e4-4e3f-aae1-f04f2cbf5b16" filterUnits="userSpaceOnUse"><feColorMatrix type="matrix" values="0 0 0 0 0.99609375  0 0 0 0 0.99609375  0 0 0 0 0.99609375  0 0 0 1 0"/></filter><linearGradient x1="0" y1="1" x2="0" y2="0" id="Ds9qJmPAyav8oxDOLCu-Q"><stop offset="0%" stop-color="#fc62db"/><stop offset="50%" stop-color="#87ebff"/><stop offset="100%" stop-color="#175bec"/></linearGradient><filter id="42443b3f1de60f6b6fd3b6a9844b4764" filterUnits="objectBoundingBox"><feColorMatrix type="matrix" values="0 0 0 0 0.99609375  0 0 0 0 0.99609375  0 0 0 0 0.99609375  0 0 0 1 0"/></filter></defs><mask v-gra="im" id="5fe84f56-8504-4aac-88e5-3a7e08b7d2df"><g class="iconsvg-imagesvg" filter="url(#6bdbadd2-a8e4-4e3f-aae1-f04f2cbf5b16)"><g><rect fill="#0a0619" fill-opacity="0" stroke-width="2" x="0" y="0" width="60" height="72.88806822323185" class="image-rect"/> <svg x="0" y="0" width="60" height="72.88806822323185" filtersec="colorsf6708170252" class="image-svg-svg primary" style="overflow: visible;"><svg xmlns="http://www.w3.org/2000/svg" xmlns:xlink="http://www.w3.org/1999/xlink" version="1.1" x="0px" y="0px" viewBox="12.955998420715332 5 74.08700561523438 90.0009994506836" enable-background="new 0 0 100 100" xml:space="preserve"><g display="none"><rect x="-267.879" y="-165.155" display="inline" width="1286.936" height="912.422"/></g><g><path d="M80.631,37.719c0-3.499-2.847-6.346-6.346-6.346H55.172c-0.913-0.834-2.026-1.449-3.26-1.767h0.043v-3.292   c2.922-0.849,5.066-3.546,5.066-6.738c0-3.871-3.15-7.021-7.021-7.021c-3.871,0-7.021,3.15-7.021,7.021   c0,3.192,2.144,5.889,5.066,6.738v3.292h0.043c-1.234,0.318-2.347,0.932-3.26,1.767H25.796c-3.499,0-6.346,2.847-6.346,6.346v3.64   l-3.937,1.451l-2.557,0.943v2.725v9.666v2.726l2.557,0.943l3.937,1.451v3.64c0,3.499,2.847,6.346,6.346,6.346h5.955v1.422v1.909   c-5.652,2.117-10.043,6.988-11.366,13.123c-3.068,0.875-5.333,3.81-5.333,7.297h4.946c0-1.446,1.023-2.623,2.279-2.623   c1.257,0,2.28,1.177,2.28,2.623h4.946c0-3.403-2.156-6.288-5.112-7.237c1.085-3.951,3.82-7.152,7.359-8.92v10.735v3.909h3.909   h28.68h3.909v-3.909V78.846c3.537,1.768,6.271,4.968,7.357,8.918c-2.955,0.95-5.11,3.834-5.11,7.237h4.946   c0-1.446,1.023-2.623,2.28-2.623c1.257,0,2.279,1.177,2.279,2.623h4.946c0-3.487-2.266-6.423-5.334-7.297   c-1.325-6.133-5.715-11.002-11.364-13.12v-1.911V71.25h6.036c3.499,0,6.346-2.847,6.346-6.346v-3.67l3.856-1.421l2.557-0.943   v-2.726v-9.666v-2.725l-2.557-0.943l-3.856-1.421V37.719z M19.45,57.097l-2.585-0.953v-9.666l2.585-0.953V57.097z M46.889,19.576   c0-1.718,1.393-3.111,3.111-3.111s3.111,1.393,3.111,3.111S51.718,22.688,50,22.688S46.889,21.295,46.889,19.576z M64.34,89.578   H35.66V72.672h28.68V89.578z M76.722,64.904c0,1.346-1.091,2.436-2.436,2.436h-48.49c-1.346,0-2.436-1.091-2.436-2.436V37.719   c0-1.346,1.091-2.436,2.436-2.436h48.49c1.346,0,2.436,1.091,2.436,2.436V64.904z M83.135,46.478v9.666l-2.504,0.923V45.555   L83.135,46.478z"/><path d="M29.026,54.501c0,3.916,3.186,7.101,7.102,7.101h27.745c3.916,0,7.101-3.186,7.101-7.101V41.02H29.026V54.501z    M31.409,43.403H68.59v11.098c0,2.601-2.116,4.718-4.718,4.718H36.128c-2.601,0-4.718-2.116-4.718-4.718V43.403z"/><path d="M37.588,55.5h1.075c1.428,0,2.591-1.162,2.591-2.591v-3.33h-1.472h-1.556v-2.033v-1.472h-0.639   c-1.428,0-2.591,1.162-2.591,2.591v4.244C34.997,54.337,36.159,55.5,37.588,55.5z"/><path d="M61.485,55.825h0.927c1.428,0,2.59-1.162,2.59-2.591v-3.656h-1.472H62.7v-1.975v-1.501   c-0.096-0.011-0.189-0.029-0.287-0.029h-0.927c-1.428,0-2.591,1.162-2.591,2.591v4.57C58.894,54.663,60.056,55.825,61.485,55.825z"/><path d="M61.646,7.841l-2.68,4.642c0.775,0.386,1.523,0.817,2.238,1.293l2.68-4.642L61.646,7.841z"/><path d="M51.043,5h-2.585v5.363c0.428-0.026,0.858-0.044,1.292-0.044c0.435,0,0.865,0.018,1.292,0.044V5z"/><path d="M37.855,7.841l-2.239,1.293l2.68,4.642c0.716-0.476,1.464-0.907,2.238-1.293L37.855,7.841z"/><path d="M54.442,76.757H37.553v8.735h16.889V76.757z M52.059,83.109H39.937v-3.968h12.122V83.109z"/><path d="M59.74,84.774c2.012,0,3.648-1.637,3.648-3.649c0-2.012-1.637-3.649-3.648-3.649c-2.012,0-3.649,1.637-3.649,3.649   C56.091,83.137,57.728,84.774,59.74,84.774z M59.74,79.86c0.697,0,1.265,0.568,1.265,1.265c0,0.698-0.568,1.265-1.265,1.265   c-0.698,0-1.265-0.568-1.265-1.265C58.475,80.427,59.042,79.86,59.74,79.86z"/></g></svg></svg> <defs><filter id="colors6736405536"><feColorMatrix type="matrix" values="0 0 0 0 0.953125  0 0 0 0 0.25  0 0 0 0 0.05078125  0 0 0 1 0" class="icon-fecolormatrix"/></filter> <filter id="colorsf6708170252"><feColorMatrix type="matrix" values="0 0 0 0 0.99609375  0 0 0 0 0.99609375  0 0 0 0 0.99609375  0 0 0 1 0" class="icon-fecolormatrix"/></filter> <filter id="colorsb7088409302"><feColorMatrix type="matrix" values="0 0 0 0 0  0 0 0 0 0  0 0 0 0 0  0 0 0 1 0" class="icon-fecolormatrix"/></filter></defs></g></g></mask>
  </svg>
</svg>


